<svg id="svg" xmlns="http://www.w3.org/2000/svg" xmlns:xlink="http://www.w3.org/1999/xlink" width="400" height="368" viewBox="0, 0, 400,368"><g id="svgg"><path id="path0" d="M174.667 2.231 C 47.446 22.635,-21.247 151.068,35.015 263.333 C 113.570 420.081,345.550 383.284,375.451 209.333 C 395.194 94.480,288.118 -15.964,174.667 2.231 M225.948 18.154 C 299.563 30.126,356.414 92.986,362.539 169.182 C 364.080 188.346,363.941 188.781,355.525 191.187 C 351.753 192.265,283.745 211.789,204.395 234.574 C 125.046 257.358,59.823 276.000,59.455 276.000 C 55.805 276.000,39.926 241.090,35.360 223.026 C 5.624 105.394,105.070 -1.506,225.948 18.154 " stroke="none" fill="#FFFFFF" fill-rule="evenodd"></path></g></svg>
